<svg width="180" height="39" viewBox="0 0 180 39" fill="none" xmlns="http://www.w3.org/2000/svg">
<rect width="180" height="39" rx="10" fill="url(#paint0_linear)"/>
<path d="M24 20C24 20 28 12 35 12C42 12 46 20 46 20C46 20 42 28 35 28C28 28 24 20 24 20Z" stroke="white" stroke-width="2" stroke-linecap="round" stroke-linejoin="round"/>
<path d="M35 23C36.6569 23 38 21.6569 38 20C38 18.3431 36.6569 17 35 17C33.3431 17 32 18.3431 32 20C32 21.6569 33.3431 23 35 23Z" stroke="white" stroke-width="2" stroke-linecap="round" stroke-linejoin="round"/>
<path d="M59.1816 24.6201H65.2461V26H57.4854V13.2031H59.1816V24.6201ZM68.6826 26H67.0566V16.4902H68.6826V26ZM66.9248 13.9678C66.9248 13.7041 67.0039 13.4814 67.1621 13.2998C67.3262 13.1182 67.5664 13.0273 67.8828 13.0273C68.1992 13.0273 68.4395 13.1182 68.6035 13.2998C68.7676 13.4814 68.8496 13.7041 68.8496 13.9678C68.8496 14.2314 68.7676 14.4512 68.6035 14.627C68.4395 14.8027 68.1992 14.8906 67.8828 14.8906C67.5664 14.8906 67.3262 14.8027 67.1621 14.627C67.0039 14.4512 66.9248 14.2314 66.9248 13.9678ZM74.4307 23.7939L76.7861 16.4902H78.4473L75.0371 26H73.7979L70.3525 16.4902H72.0137L74.4307 23.7939ZM83.835 26.1758C82.5459 26.1758 81.4971 25.7539 80.6885 24.9102C79.8799 24.0605 79.4756 22.9268 79.4756 21.5088V21.21C79.4756 20.2666 79.6543 19.4258 80.0117 18.6875C80.375 17.9434 80.8789 17.3633 81.5234 16.9473C82.1738 16.5254 82.877 16.3145 83.6328 16.3145C84.8691 16.3145 85.8301 16.7217 86.5156 17.5361C87.2012 18.3506 87.5439 19.5166 87.5439 21.0342V21.7109H81.1016C81.125 22.6484 81.3975 23.4072 81.9189 23.9873C82.4463 24.5615 83.1143 24.8486 83.9229 24.8486C84.4971 24.8486 84.9834 24.7314 85.3818 24.4971C85.7803 24.2627 86.1289 23.9521 86.4277 23.5654L87.4209 24.3389C86.624 25.5635 85.4287 26.1758 83.835 26.1758ZM83.6328 17.6504C82.9766 17.6504 82.4258 17.8906 81.9805 18.3711C81.5352 18.8457 81.2598 19.5137 81.1543 20.375H85.918V20.252C85.8711 19.4258 85.6484 18.7871 85.25 18.3359C84.8516 17.8789 84.3125 17.6504 83.6328 17.6504ZM95.8408 20.9902V26H94.1533V13.2031H98.873C100.273 13.2031 101.369 13.5605 102.16 14.2754C102.957 14.9902 103.355 15.9365 103.355 17.1143C103.355 18.3564 102.966 19.3145 102.187 19.9883C101.413 20.6562 100.303 20.9902 98.8555 20.9902H95.8408ZM95.8408 19.6104H98.873C99.7754 19.6104 100.467 19.3994 100.947 18.9775C101.428 18.5498 101.668 17.9346 101.668 17.1318C101.668 16.3701 101.428 15.7607 100.947 15.3037C100.467 14.8467 99.8076 14.6094 98.9697 14.5918H95.8408V19.6104ZM109.851 17.9492C109.604 17.9082 109.338 17.8877 109.051 17.8877C107.984 17.8877 107.261 18.3418 106.88 19.25V26H105.254V16.4902H106.836L106.862 17.5889C107.396 16.7393 108.151 16.3145 109.13 16.3145C109.446 16.3145 109.687 16.3555 109.851 16.4375V17.9492ZM115.124 26.1758C113.835 26.1758 112.786 25.7539 111.978 24.9102C111.169 24.0605 110.765 22.9268 110.765 21.5088V21.21C110.765 20.2666 110.943 19.4258 111.301 18.6875C111.664 17.9434 112.168 17.3633 112.812 16.9473C113.463 16.5254 114.166 16.3145 114.922 16.3145C116.158 16.3145 117.119 16.7217 117.805 17.5361C118.49 18.3506 118.833 19.5166 118.833 21.0342V21.7109H112.391C112.414 22.6484 112.687 23.4072 113.208 23.9873C113.735 24.5615 114.403 24.8486 115.212 24.8486C115.786 24.8486 116.272 24.7314 116.671 24.4971C117.069 24.2627 117.418 23.9521 117.717 23.5654L118.71 24.3389C117.913 25.5635 116.718 26.1758 115.124 26.1758ZM114.922 17.6504C114.266 17.6504 113.715 17.8906 113.27 18.3711C112.824 18.8457 112.549 19.5137 112.443 20.375H117.207V20.252C117.16 19.4258 116.938 18.7871 116.539 18.3359C116.141 17.8789 115.602 17.6504 114.922 17.6504ZM123.737 23.7939L126.093 16.4902H127.754L124.344 26H123.104L119.659 16.4902H121.32L123.737 23.7939ZM131.085 26H129.459V16.4902H131.085V26ZM129.327 13.9678C129.327 13.7041 129.406 13.4814 129.564 13.2998C129.729 13.1182 129.969 13.0273 130.285 13.0273C130.602 13.0273 130.842 13.1182 131.006 13.2998C131.17 13.4814 131.252 13.7041 131.252 13.9678C131.252 14.2314 131.17 14.4512 131.006 14.627C130.842 14.8027 130.602 14.8906 130.285 14.8906C129.969 14.8906 129.729 14.8027 129.564 14.627C129.406 14.4512 129.327 14.2314 129.327 13.9678ZM137.642 26.1758C136.353 26.1758 135.304 25.7539 134.495 24.9102C133.687 24.0605 133.282 22.9268 133.282 21.5088V21.21C133.282 20.2666 133.461 19.4258 133.818 18.6875C134.182 17.9434 134.686 17.3633 135.33 16.9473C135.98 16.5254 136.684 16.3145 137.439 16.3145C138.676 16.3145 139.637 16.7217 140.322 17.5361C141.008 18.3506 141.351 19.5166 141.351 21.0342V21.7109H134.908C134.932 22.6484 135.204 23.4072 135.726 23.9873C136.253 24.5615 136.921 24.8486 137.729 24.8486C138.304 24.8486 138.79 24.7314 139.188 24.4971C139.587 24.2627 139.936 23.9521 140.234 23.5654L141.228 24.3389C140.431 25.5635 139.235 26.1758 137.642 26.1758ZM137.439 17.6504C136.783 17.6504 136.232 17.8906 135.787 18.3711C135.342 18.8457 135.066 19.5137 134.961 20.375H139.725V20.252C139.678 19.4258 139.455 18.7871 139.057 18.3359C138.658 17.8789 138.119 17.6504 137.439 17.6504ZM151.66 23.7588L153.488 16.4902H155.114L152.346 26H151.027L148.716 18.793L146.466 26H145.147L142.388 16.4902H144.005L145.877 23.6094L148.092 16.4902H149.401L151.66 23.7588Z" fill="white"/>
<defs>
<linearGradient id="paint0_linear" x1="90" y1="0" x2="90" y2="39" gradientUnits="userSpaceOnUse">
<stop stop-color="#352E4E"/>
<stop offset="1" stop-color="#272334"/>
</linearGradient>
</defs>
</svg>
